<svg version="1.1" id="Layer_1" xmlns="http://www.w3.org/2000/svg" xmlns:xlink="http://www.w3.org/1999/xlink" x="0px" y="0px"
	 width="100%" viewBox="0 0 1024 592" enable-background="new 0 0 1024 592" xml:space="preserve">
<path fill="#009ec1" opacity="1.000000" stroke="none" 
	d="
M139.395966,291.356934 
	C199.404678,255.286942 259.100464,219.405319 318.805817,183.539536 
	C350.228058,164.663788 381.673615,145.826813 413.083557,126.930550 
	C415.204895,125.654350 417.233215,125.055962 419.689636,125.800568 
	C447.264862,134.159317 471.978394,147.217972 488.980896,171.290955 
	C512.117371,204.048660 513.590881,238.909851 495.295227,274.107544 
	C478.369659,306.669312 449.850433,325.086182 415.437164,335.244965 
	C406.028748,338.022308 405.998627,337.770325 410.713226,346.464233 
	C436.840729,394.644714 462.957001,442.831268 489.033264,491.039490 
	C490.183350,493.165741 491.894867,495.139008 491.813629,497.767151 
	C490.243256,499.337006 488.323822,498.998840 486.543884,499.000610 
	C458.377655,499.028961 430.211151,498.973969 402.045349,499.086792 
	C398.384125,499.101471 396.356018,497.737518 394.629303,494.537689 
	C368.124878,445.421417 341.465973,396.388458 314.989044,347.257416 
	C312.924042,343.425629 310.397369,341.297058 306.091492,341.420776 
	C302.211182,341.532227 298.450684,340.790009 294.768677,339.733459 
	C291.894226,338.908630 290.368622,339.714508 289.765747,342.681946 
	C286.755249,357.499817 283.057922,372.187714 281.449249,387.267853 
	C281.105316,390.492126 281.818237,393.614929 282.671082,396.628571 
	C284.006805,401.348572 288.330231,403.445374 293.357025,402.225189 
	C300.747162,400.431366 307.117554,396.386444 313.789886,393.002106 
	C317.353271,391.194702 320.938385,389.425720 324.563568,387.747131 
	C325.735931,387.204254 327.215027,386.574646 328.216034,387.961029 
	C329.411652,389.617004 328.059875,390.773743 326.994781,391.785461 
	C326.037781,392.694427 324.956482,393.510742 323.823822,394.191101 
	C274.695465,423.701721 225.556839,453.195251 176.407303,482.670563 
	C175.167740,483.413940 174.031113,484.572662 171.946533,484.152679 
	C171.326385,479.522003 173.102386,475.130432 173.998550,470.722992 
	C184.699387,418.095642 195.646271,365.518097 206.265121,312.874359 
	C208.000977,304.268707 209.709137,295.558044 209.664764,286.682922 
	C209.617722,277.276031 205.048737,273.616913 195.848206,275.740662 
	C185.530975,278.122223 176.086685,282.793274 166.742111,287.551392 
	C143.720367,299.273682 121.376961,312.226074 99.152054,325.382690 
	C97.003845,326.654358 94.839531,327.939545 92.559509,328.936798 
	C90.085236,330.018982 87.165947,331.076202 85.481903,327.971222 
	C83.821198,324.909332 86.632469,323.386169 88.641129,322.112000 
	C94.830803,318.185608 101.157822,314.475739 107.432312,310.683136 
	C117.983543,304.305511 128.535431,297.928925 139.395966,291.356934 
M423.813568,245.213226 
	C427.616058,235.739853 426.145905,226.956390 420.316528,218.763580 
	C415.057007,211.371658 407.921967,206.219849 399.918549,202.280426 
	C377.467224,191.229523 353.311218,188.187576 328.689850,187.141586 
	C323.607819,186.925674 321.255920,188.272537 320.232269,193.484543 
	C315.071930,219.758987 309.584991,245.969330 304.207184,272.201050 
	C302.912903,278.514435 303.180878,278.952148 309.639465,279.594238 
	C325.049652,281.126160 340.433411,282.501068 355.971252,280.862793 
	C372.539001,279.115906 388.526611,275.633881 403.051300,267.142670 
	C411.821503,262.015564 419.314331,255.518127 423.813568,245.213226 
z"/>
<path fill="#009ec1" opacity="1.000000" stroke="none" 
	d="
M864.625122,82.584816 
	C896.185120,69.650604 925.570251,53.217075 955.279053,37.426796 
	C959.535583,35.164433 963.962341,33.205097 968.391235,31.292765 
	C970.158691,30.529543 972.592834,29.518040 973.823364,31.613432 
	C975.139465,33.854481 972.816895,35.334263 971.257202,36.345051 
	C965.528809,40.057339 959.682556,43.591148 953.830078,47.107891 
	C911.282654,72.674454 868.721375,98.217911 826.167419,123.773674 
	C781.614258,150.530075 736.920410,177.056000 692.556274,204.122192 
	C653.152893,228.161819 626.854553,262.510406 614.957458,307.263275 
	C609.150940,329.105469 609.404358,351.048004 617.269043,372.583252 
	C619.735596,379.337341 623.796387,384.935730 629.145508,389.606201 
	C635.448364,395.109406 642.763245,396.171326 650.676575,394.004883 
	C657.011047,392.270721 662.715454,389.191895 668.250305,385.742706 
	C670.182495,384.538666 672.066711,382.872864 674.714966,384.356598 
	C675.544434,387.132202 673.446045,388.242126 671.677307,389.307495 
	C640.000977,408.387299 608.280579,427.393707 576.630188,446.516266 
	C573.764832,448.247498 572.027893,448.045868 570.034302,445.277557 
	C552.609131,421.081451 540.986267,394.488770 536.707703,364.874878 
	C529.787781,316.978088 540.591187,272.472839 563.846436,230.831848 
	C591.289001,181.692993 630.383972,144.587158 681.710205,120.912712 
	C708.654358,108.484619 737.050598,102.607300 766.759705,101.486382 
	C800.121155,100.227669 833.069397,95.746231 864.625122,82.584816 
z"/>
<path fill="#009ec1" opacity="1.000000" stroke="none" 
	d="
M802.171570,437.062012 
	C784.444275,468.784424 757.223938,486.789764 722.595642,494.239319 
	C692.748352,500.660431 663.217041,497.861755 635.365967,486.331879 
	C606.825378,474.516510 579.385681,476.222015 551.320374,486.404785 
	C533.753906,492.778351 516.871277,500.647247 499.968475,508.522369 
	C497.035187,509.889038 493.001343,513.173767 490.798096,508.872864 
	C488.681885,504.741974 494.061218,504.256622 496.346039,502.874298 
	C544.226440,473.906647 592.239929,445.158997 640.116150,416.184509 
	C644.474487,413.546844 647.508240,412.866943 652.004028,416.292053 
	C662.356812,424.179504 674.226868,429.183105 687.275024,430.375824 
	C714.283691,432.844604 740.550537,412.823883 745.349304,389.073669 
	C747.173584,380.044830 740.393921,373.585938 730.619751,374.787476 
	C723.432739,375.670959 716.658081,377.784210 710.199280,381.044403 
	C708.332214,381.986786 705.813293,383.536530 704.381592,381.151672 
	C702.785767,378.493561 705.339355,376.994934 707.357666,375.783508 
	C747.769348,351.527252 788.188843,327.283936 828.616516,303.054291 
	C829.727966,302.388214 830.778564,301.426971 832.298157,301.734467 
	C833.725830,302.740814 833.073242,304.107544 832.821777,305.336731 
	C825.291565,342.145020 817.739319,378.948792 810.196045,415.754395 
	C808.678101,423.160889 805.807190,430.056396 802.171570,437.062012 
z"/>
<path fill="#009ec1" opacity="1.000000" stroke="none" 
	d="
M490.638000,70.699532 
	C418.106567,114.294403 345.882141,157.691376 273.656708,201.086777 
	C253.672821,213.093765 233.687256,225.097977 213.697266,237.094864 
	C212.700150,237.693268 211.680588,238.269135 210.622574,238.747269 
	C209.441422,239.281052 208.303955,239.177856 207.596939,237.939255 
	C206.992676,236.880661 207.607605,236.044693 208.292328,235.273712 
	C208.402359,235.149811 208.517639,235.021683 208.654282,234.931549 
	C224.771561,224.298981 228.062393,207.103760 231.556137,190.046890 
	C237.024170,163.351227 242.452896,136.647324 247.794540,109.926193 
	C248.525696,106.268738 250.673355,105.698135 253.888901,105.725746 
	C268.046234,105.847321 282.205139,105.820847 296.363403,105.802414 
	C361.051483,105.718208 422.267487,91.150803 480.268402,62.441765 
	C505.197815,50.102310 529.899170,37.352402 554.465454,24.322870 
	C555.494690,23.776978 556.508606,23.185333 557.582886,22.744751 
	C559.573120,21.928516 561.952881,20.640224 563.302490,23.244139 
	C564.553589,25.657877 562.541748,27.321213 560.679016,28.463417 
	C550.600769,34.643200 540.480225,40.754478 530.351807,46.852013 
	C517.227173,54.753407 504.081360,62.619686 490.638000,70.699532 
z"/>
<path fill="#009ec1" opacity="1.000000" stroke="none" 
	d="
M903.155151,250.216293 
	C844.605103,285.396240 786.379089,320.410248 728.123596,355.375153 
	C726.614441,356.280884 724.697876,358.618378 723.046997,355.974335 
	C721.681885,353.788025 724.273743,352.948608 725.499451,351.759583 
	C727.250305,350.061035 729.690613,348.965607 730.390991,345.983032 
	C727.757874,343.696564 724.506226,343.435699 721.227051,343.386658 
	C715.064026,343.294495 708.899841,343.267853 702.736084,343.234467 
	C699.073669,343.214661 697.315308,342.269073 698.277710,337.836273 
	C702.120850,320.135162 705.652222,302.364868 709.126282,284.586426 
	C709.822021,281.025787 711.294800,279.605408 715.065430,279.639252 
	C736.379944,279.830444 757.644470,278.544922 778.856567,276.616821 
	C826.002991,272.331421 870.720886,259.855225 912.163025,236.520660 
	C915.343994,234.729584 918.679260,233.189133 922.030640,231.734619 
	C923.546021,231.076996 925.464905,230.710617 926.566467,232.445984 
	C927.912231,234.566116 926.223755,236.045944 924.751465,236.978210 
	C917.720703,241.430191 910.578125,245.705627 903.155151,250.216293 
z"/>
<path fill="#009ec1" opacity="1.000000" stroke="none" 
	d="
M207.261322,472.216125 
	C228.074158,459.716522 248.574692,447.406067 269.185638,435.029297 
	C271.154327,438.405884 269.567780,440.985565 269.089569,443.403351 
	C265.733826,460.369629 262.022461,477.265472 258.648224,494.228271 
	C257.972290,497.626282 256.516266,499.068939 253.088043,499.196991 
	C205.633423,500.969360 162.221497,516.405151 120.545845,538.064514 
	C96.452980,550.585938 72.609268,563.555298 48.738682,576.482849 
	C47.572407,577.114502 46.413265,577.834839 45.159904,578.211243 
	C43.519169,578.704041 41.820820,578.758362 40.737446,576.981384 
	C39.689651,575.262817 40.162079,573.566162 41.499023,572.465271 
	C43.798443,570.571777 46.276810,568.855774 48.833012,567.319824 
	C93.099922,540.721252 137.390808,514.162476 181.674911,487.592499 
	C190.102997,482.535706 198.524475,477.467926 207.261322,472.216125 
z"/>
<path fill="#009ec1" opacity="1.000000" stroke="none" 
	d="
M739.913208,192.923126 
	C729.970459,196.997391 720.982727,202.069397 712.170532,207.474609 
	C711.176575,208.084305 710.228882,208.779114 709.199402,209.319321 
	C707.219482,210.358337 704.894043,211.351791 703.391968,209.061722 
	C701.775879,206.597748 703.926819,204.989746 705.756958,203.857910 
	C713.124146,199.301712 720.564880,194.863998 727.992188,190.405304 
	C760.700745,170.770081 793.410278,151.136551 826.136597,131.531036 
	C827.760010,130.558517 829.237244,128.937546 832.049622,129.803177 
	C830.792236,136.125931 829.561218,142.437317 828.279053,148.738312 
	C825.625427,161.779831 822.863647,174.800125 820.332336,187.865189 
	C819.701599,191.120605 818.225586,192.047638 815.166626,191.223419 
	C803.882812,188.182983 792.364014,186.395538 780.732422,185.657516 
	C766.725281,184.768738 753.236633,187.451202 739.913208,192.923126 
z"/>
</svg>
